<?xml version="1.0" encoding="UTF-8" standalone="no"?>
<!DOCTYPE svg PUBLIC "-//W3C//DTD SVG 1.1//EN" "http://www.w3.org/Graphics/SVG/1.1/DTD/svg11.dtd">
<svg version="1.1" xmlns="http://www.w3.org/2000/svg" xmlns:xlink="http://www.w3.org/1999/xlink" preserveAspectRatio="xMidYMid meet" viewBox="0 0 640 640" width="640" height="640"><defs><path d="M399.61 604.08C371.9 596.57 358.21 594.15 335.04 592.66C314.45 591.33 300.89 592.11 254.65 597.25C202.52 603.06 169.67 602.29 139.5 594.56C102.11 584.98 75.39 563.85 67.89 537.92C65.86 530.93 65.04 514.49 66.36 507.5C67.58 501.05 69.97 493.8 72.69 488.33C81.04 471.51 100.71 454.97 119.56 448.93C122.27 448.06 124.59 447.09 124.7 446.77C124.82 446.45 123.36 443.03 121.46 439.18C112.21 420.42 111 396.55 118.32 377.08C125.24 358.65 140.23 342.4 159.81 332.1C163.34 330.24 168.31 327.98 170.85 327.07C171.16 326.96 172.7 326.41 175.47 325.42C173.5 321.47 172.4 319.27 172.18 318.83C162.82 300.07 165.68 276.32 179.89 254.95C189.78 240.07 207.83 224.96 225.96 216.37C231.39 213.79 233.33 212.52 233.06 211.69C232.86 211.06 231.75 207.99 230.59 204.86C228.71 199.75 228.49 198.2 228.51 189.68C228.54 181.33 228.79 179.46 230.63 174.12C235.22 160.84 241.42 152.09 258.93 134.22C266.42 126.57 271.45 120.82 271.77 119.54C273.16 114.02 270.14 98.63 265.19 85.96C262.15 78.18 262.11 77.98 263.49 76.45C264.81 74.98 265.43 74.91 273.62 75.37C291.97 76.4 312.35 80.24 326.37 85.31C359.38 97.24 392.85 125.85 413.51 159.78C425.4 179.32 435.9 205.47 438.43 221.86C439.59 229.38 439.46 229.14 442.66 229.16C449.72 229.18 460.82 233.2 469.2 238.76C496.71 257.02 508.65 294.89 495 320.6C494.83 320.92 493.98 322.52 492.45 325.39C495 325.69 496.41 325.86 496.69 325.9C518.39 328.48 537.82 342.56 548.26 363.26C559.46 385.47 556.64 415.44 540.94 440.9C537.75 446.08 537.84 446.93 541.6 446.96C545.68 446.98 555.82 450.11 562.41 453.37C577.6 460.9 588.15 473.19 594.04 490.23C596.47 497.26 596.54 497.75 596.52 509.96C596.5 521.65 596.35 522.92 594.35 528.94C588.78 545.69 578.77 559.75 562.99 572.98C538.6 593.41 506.29 608.43 477.36 612.8C468.1 614.19 447.51 614.18 437.87 612.77C428.72 611.44 416.69 608.7 399.61 604.08Z" id="bVnEokAGV"></path><path d="M520.66 587.77C565.39 565.87 589.7 534.87 586.25 504.13C584.84 491.5 579.79 481.26 570.38 471.92C561.12 462.73 550.3 458.16 532.85 456.08C532.35 456.02 529.87 455.72 525.39 455.19C522.83 457.66 521.41 459.04 521.13 459.31C511.27 468.85 495.45 481.15 476.26 494.19C420.22 532.29 358.5 561.52 294.87 580.1C294.09 580.33 290.17 581.48 283.11 583.54C287.21 583.21 289.48 583.03 289.94 582.99C293.69 582.69 307.53 582.45 320.68 582.46C353.7 582.48 366.48 584.32 404.41 594.52C424.54 599.93 436.5 602.41 447.01 603.34C454.7 604.02 467.86 603.61 475.89 602.45C490.1 600.38 504.64 595.62 520.66 587.77Z" id="c8cGDrUkL"></path><path d="M486.66 333.44L487.87 333.65L489.04 333.86L490.16 334.07L491.26 334.27L492.31 334.48L493.34 334.68L494.33 334.88L495.29 335.08L496.22 335.29L497.12 335.49L497.99 335.69L498.84 335.9L499.66 336.11L500.47 336.32L501.25 336.54L502 336.75L502.74 336.98L503.47 337.2L504.17 337.44L504.86 337.67L505.54 337.92L506.21 338.17L506.86 338.42L507.5 338.69L508.14 338.96L508.77 339.24L509.39 339.53L510.01 339.83L510.62 340.13L511.24 340.45L511.85 340.78L512.47 341.11L513.08 341.46L513.7 341.82L514.33 342.2L514.96 342.58L515.6 342.98L516.25 343.4L516.91 343.82L518.19 344.68L519.43 345.56L520.65 346.46L521.85 347.38L523.01 348.33L524.14 349.3L525.25 350.29L526.32 351.31L527.37 352.34L528.38 353.4L529.37 354.48L530.32 355.58L531.24 356.69L532.14 357.83L533 358.99L533.83 360.16L534.63 361.35L535.4 362.57L536.14 363.8L536.84 365.04L537.52 366.31L538.16 367.59L538.77 368.88L539.34 370.2L539.89 371.52L540.4 372.87L540.87 374.23L541.32 375.6L541.73 376.99L542.1 378.39L542.44 379.8L542.75 381.23L543.03 382.67L543.26 384.12L543.47 385.59L543.64 387.07L543.77 388.55L543.87 390.05L543.93 391.56L543.96 393.08L543.96 393.74L543.96 394.38L543.96 395.01L543.95 395.63L543.94 396.23L543.92 396.83L543.9 397.42L543.87 398L543.85 398.58L543.81 399.14L543.77 399.7L543.73 400.25L543.69 400.8L543.63 401.35L543.58 401.89L543.52 402.42L543.45 402.96L543.38 403.49L543.3 404.03L543.22 404.56L543.13 405.09L543.03 405.62L542.93 406.16L542.83 406.7L542.72 407.24L542.6 407.79L542.47 408.34L542.34 408.89L542.21 409.45L542.06 410.02L541.91 410.6L541.75 411.18L541.59 411.78L541.42 412.38L541.24 412.99L541.06 413.61L540.86 414.25L540.66 414.9L540.45 415.56L540.24 416.23L540.07 416.73L539.87 417.29L539.64 417.9L539.39 418.56L539.11 419.27L538.8 420.02L538.47 420.8L538.12 421.63L537.75 422.49L537.37 423.38L536.96 424.29L536.54 425.23L536.1 426.2L535.66 427.18L535.2 428.18L534.73 429.19L534.25 430.21L533.76 431.24L533.27 432.27L532.78 433.31L532.28 434.34L531.78 435.36L531.28 436.38L530.78 437.39L530.29 438.38L529.8 439.36L529.31 440.32L528.83 441.25L528.37 442.16L527.91 443.04L527.46 443.88L527.03 444.69L526.61 445.47L526.2 446.2L525.82 446.89L525.45 447.54L525.1 448.13L524.78 448.67L524.47 449.15L524.19 449.58L523.68 450.29L523.03 451.08L522.26 451.94L521.36 452.88L520.35 453.89L519.22 454.96L517.98 456.1L516.64 457.3L515.19 458.55L513.65 459.86L512.02 461.23L510.29 462.64L508.49 464.09L506.6 465.59L504.64 467.12L502.6 468.69L500.5 470.3L498.34 471.93L496.12 473.59L493.84 475.27L491.51 476.97L489.14 478.69L486.73 480.42L484.28 482.16L481.79 483.91L479.28 485.66L476.75 487.42L474.19 489.17L471.62 490.91L469.04 492.65L466.45 494.38L463.85 496.09L461.26 497.78L458.68 499.45L456.1 501.1L453.54 502.72L450.99 504.31L448.47 505.87L445.98 507.39L443.52 508.87L440.26 510.8L437.01 512.71L433.78 514.59L430.56 516.44L427.35 518.26L424.15 520.06L420.96 521.83L417.77 523.58L414.6 525.3L411.43 527L408.27 528.67L405.11 530.32L401.95 531.94L398.81 533.54L395.66 535.12L392.51 536.67L389.37 538.21L386.23 539.72L383.09 541.2L379.95 542.67L376.8 544.12L373.65 545.54L370.5 546.95L367.35 548.33L364.19 549.7L361.03 551.04L357.86 552.37L354.68 553.68L351.5 554.97L348.31 556.24L345.1 557.5L341.89 558.73L338.67 559.95L335.43 561.16L332.19 562.35L328.93 563.52L325.65 564.68L322.37 565.82L319.06 566.95L315.74 568.06L313.39 568.84L311.02 569.61L308.65 570.38L306.28 571.14L303.9 571.89L301.53 572.63L299.15 573.37L296.79 574.09L294.43 574.81L292.07 575.51L289.73 576.2L287.4 576.89L285.09 577.55L282.8 578.21L280.52 578.85L278.27 579.48L276.04 580.1L273.84 580.7L271.66 581.28L269.52 581.85L267.41 582.4L265.33 582.93L263.3 583.45L261.3 583.94L259.34 584.42L257.43 584.88L255.56 585.32L253.74 585.73L251.97 586.13L250.25 586.5L248.59 586.86L246.98 587.18L245.44 587.49L243.95 587.77L242.53 588.02L241.17 588.25L239.88 588.46L238.66 588.64L237.51 588.79L236.43 588.91L235.36 589.01L234.19 589.11L232.91 589.21L231.54 589.3L230.09 589.39L228.55 589.47L226.93 589.54L225.24 589.62L223.48 589.68L221.67 589.75L219.8 589.8L217.88 589.86L215.92 589.91L213.93 589.95L211.9 589.99L209.85 590.02L207.78 590.05L205.69 590.07L203.6 590.09L201.5 590.1L199.41 590.11L197.33 590.11L195.27 590.11L193.22 590.1L191.2 590.09L189.22 590.07L187.27 590.05L185.37 590.02L183.52 589.99L181.73 589.95L179.99 589.91L178.33 589.86L176.73 589.8L175.22 589.74L173.79 589.67L172.45 589.6L171.21 589.52L170.07 589.44L169.04 589.35L168.12 589.26L165.61 588.96L163.12 588.64L160.67 588.29L158.25 587.91L155.86 587.51L153.5 587.09L151.17 586.64L148.88 586.16L146.61 585.66L144.38 585.13L142.18 584.58L140.01 584.01L137.87 583.41L135.77 582.78L133.69 582.12L131.65 581.45L129.63 580.74L127.65 580.01L125.7 579.26L123.78 578.48L121.89 577.67L120.03 576.84L118.2 575.98L116.4 575.1L114.64 574.19L112.9 573.26L111.2 572.3L109.52 571.31L107.88 570.3L106.26 569.27L104.68 568.2L103.12 567.12L101.6 566L100.11 564.86L98.64 563.7L97.21 562.5L95.81 561.29L94.43 560.04L93.09 558.77L91.78 557.48L91.37 557.06L90.97 556.66L90.59 556.27L90.21 555.88L89.85 555.51L89.51 555.14L89.17 554.78L88.84 554.43L88.53 554.09L88.22 553.75L87.92 553.42L87.64 553.1L87.36 552.78L87.09 552.46L86.82 552.15L86.57 551.84L86.32 551.53L86.08 551.23L85.85 550.93L85.62 550.63L85.4 550.33L85.18 550.03L84.97 549.73L84.76 549.43L84.56 549.13L84.36 548.83L84.16 548.52L83.97 548.21L83.77 547.9L83.58 547.58L83.4 547.26L83.21 546.94L83.03 546.61L82.84 546.27L82.66 545.93L82.47 545.58L82.29 545.22L82.1 544.85L81.91 544.48L81.72 544.1L81.4 543.42L81.08 542.77L80.78 542.12L80.49 541.48L80.21 540.86L79.94 540.24L79.68 539.63L79.44 539.03L79.2 538.44L78.97 537.85L78.76 537.26L78.55 536.69L78.35 536.11L78.17 535.54L77.99 534.97L77.82 534.4L77.66 533.83L77.51 533.26L77.37 532.69L77.24 532.12L77.11 531.55L77 530.97L76.89 530.39L76.79 529.8L76.7 529.21L76.61 528.61L76.54 528L76.47 527.39L76.4 526.76L76.35 526.13L76.3 525.48L76.25 524.83L76.22 524.16L76.19 523.48L76.16 522.78L76.14 522.07L76.13 521.35L76.12 520.61L76.12 519.85L76.12 519.07L76.13 518.28L76.14 517.51L76.16 516.74L76.19 515.99L76.22 515.25L76.26 514.51L76.31 513.79L76.36 513.08L76.42 512.37L76.49 511.67L76.57 510.98L76.65 510.3L76.74 509.63L76.84 508.96L76.95 508.3L77.06 507.65L77.18 507L77.31 506.35L77.45 505.71L77.59 505.08L77.75 504.44L77.91 503.81L78.08 503.19L78.26 502.57L78.44 501.95L78.64 501.33L78.84 500.71L79.06 500.09L79.28 499.47L79.51 498.86L79.75 498.24L80.01 497.62L80.27 497L80.53 496.38L80.81 495.76L81.1 495.14L81.4 494.51L81.71 493.88L82.03 493.24L82.36 492.6L82.94 491.5L83.56 490.42L84.2 489.34L84.86 488.26L85.55 487.2L86.27 486.15L87.01 485.11L87.78 484.08L88.57 483.06L89.38 482.05L90.22 481.05L91.08 480.06L91.96 479.09L92.86 478.13L93.79 477.18L94.74 476.24L95.71 475.32L96.7 474.41L97.71 473.51L98.74 472.63L99.78 471.76L100.85 470.91L101.94 470.07L103.05 469.24L104.17 468.44L105.31 467.65L106.47 466.87L107.65 466.12L108.84 465.37L110.05 464.65L111.27 463.95L112.51 463.26L113.77 462.59L115.04 461.94L116.32 461.3L117.62 460.69L118.93 460.1L120.26 459.53L121.6 458.97L122.95 458.44L123.48 458.23L124 458.03L124.49 457.85L124.97 457.67L125.43 457.5L125.87 457.34L126.3 457.18L126.71 457.04L127.12 456.9L127.52 456.77L127.91 456.65L128.3 456.53L128.68 456.42L129.07 456.32L129.45 456.22L129.84 456.12L130.23 456.04L130.63 455.95L131.03 455.87L131.45 455.8L131.87 455.73L132.31 455.66L132.77 455.59L133.24 455.53L133.73 455.47L134.24 455.42L134.78 455.36L135.34 455.31L135.92 455.25L136.54 455.2L137.18 455.15L137.85 455.1L138.56 455.05L139.3 455L140.08 454.95L140.9 454.9L141.76 454.84L142.66 454.79L143.6 454.73L144.6 454.67L145.71 454.6L146.82 454.53L147.94 454.46L149.06 454.38L150.18 454.29L151.31 454.21L152.44 454.12L153.58 454.02L154.72 453.92L155.86 453.82L157.01 453.72L158.16 453.61L159.32 453.49L160.48 453.38L161.65 453.25L162.82 453.13L164.01 453L165.19 452.87L166.38 452.73L167.58 452.59L168.79 452.44L170 452.29L171.22 452.13L172.45 451.98L173.69 451.81L174.93 451.64L176.18 451.47L177.44 451.3L178.71 451.12L179.98 450.93L181.27 450.74L182.56 450.55L183.87 450.35L185.18 450.15L186.5 449.94L187.84 449.73L189.18 449.51L190.53 449.29L191.9 449.07L193.27 448.84L193.73 448.76L194.18 448.68L194.63 448.61L195.08 448.54L195.52 448.46L195.96 448.39L196.39 448.32L196.81 448.25L197.23 448.18L197.65 448.11L198.05 448.05L198.45 447.98L198.85 447.92L199.23 447.85L199.61 447.79L199.97 447.74L200.33 447.68L200.68 447.62L201.02 447.57L201.35 447.52L201.67 447.47L201.97 447.42L202.27 447.37L202.55 447.33L202.82 447.29L203.08 447.25L203.33 447.21L203.56 447.18L203.78 447.15L203.98 447.12L204.17 447.09L204.35 447.06L204.51 447.04L204.65 447.02L204.78 447.01L204.89 446.99L204.99 446.98L205.06 446.97L205.12 446.97L205.16 446.97L205.2 446.97L205.24 446.98L205.29 447L205.35 447.02L205.41 447.05L205.48 447.08L205.56 447.12L205.64 447.16L205.73 447.21L205.82 447.27L205.92 447.33L206.02 447.39L206.13 447.46L206.24 447.54L206.36 447.62L206.48 447.7L206.61 447.79L206.74 447.88L206.88 447.98L207.02 448.08L207.16 448.19L207.31 448.29L207.46 448.41L207.61 448.52L207.77 448.64L207.93 448.76L208.09 448.89L208.26 449.02L208.42 449.15L208.59 449.29L208.77 449.42L208.94 449.56L209.11 449.7L209.29 449.85L209.47 449.99L209.65 450.14L209.83 450.29L210.01 450.45L210.19 450.6L210.37 450.76L210.77 451.09L211.18 451.42L211.61 451.76L212.05 452.1L212.51 452.44L212.97 452.77L213.45 453.11L213.94 453.45L214.44 453.79L214.96 454.12L215.48 454.45L216 454.79L216.54 455.11L217.09 455.44L217.64 455.76L218.19 456.08L218.75 456.4L219.32 456.71L219.89 457.02L220.46 457.32L221.04 457.62L221.61 457.91L222.19 458.19L222.77 458.47L223.34 458.74L223.92 459.01L224.49 459.27L225.06 459.51L225.63 459.76L226.2 459.99L226.76 460.21L227.31 460.43L227.86 460.63L228.4 460.83L228.93 461.01L229.46 461.19L229.98 461.35L230.48 461.5L230.98 461.64L231.47 461.77L231.66 461.81L231.86 461.86L232.07 461.91L232.29 461.95L232.52 462L232.76 462.04L233.01 462.08L233.26 462.13L233.52 462.17L233.79 462.21L234.07 462.25L234.35 462.29L234.64 462.33L234.93 462.36L235.23 462.4L235.54 462.44L235.84 462.47L236.15 462.51L236.47 462.54L236.79 462.57L237.11 462.6L237.43 462.63L237.76 462.66L238.09 462.68L238.41 462.71L238.74 462.73L239.07 462.75L239.4 462.77L239.73 462.79L240.06 462.81L240.39 462.83L240.72 462.84L241.04 462.85L241.36 462.87L241.68 462.88L242 462.88L242.31 462.89L242.62 462.89L242.93 462.9L243.23 462.9L244.13 462.89L245.01 462.87L245.89 462.84L246.75 462.8L247.61 462.75L248.47 462.68L249.31 462.61L250.15 462.52L250.98 462.42L251.8 462.31L252.62 462.18L253.43 462.05L254.24 461.9L255.04 461.74L255.83 461.56L256.63 461.37L257.42 461.17L258.21 460.96L258.99 460.73L259.77 460.49L260.55 460.24L261.33 459.97L262.11 459.69L262.88 459.39L263.66 459.08L264.43 458.76L265.21 458.42L265.99 458.07L266.77 457.7L267.55 457.32L268.33 456.92L269.11 456.51L269.9 456.08L270.69 455.64L271.48 455.18L272.28 454.71L273.08 454.22L273.89 453.72L274.7 453.2L275.52 452.66L276.21 452.2L276.89 451.73L277.56 451.26L278.22 450.78L278.87 450.3L279.52 449.81L280.15 449.32L280.77 448.82L281.39 448.31L282 447.79L282.61 447.27L283.2 446.74L283.8 446.19L284.38 445.64L284.97 445.08L285.55 444.5L286.12 443.92L286.69 443.32L287.26 442.7L287.83 442.08L288.4 441.44L288.96 440.79L289.52 440.12L290.09 439.43L290.65 438.73L291.22 438.01L291.78 437.28L292.35 436.53L292.92 435.75L293.5 434.96L294.07 434.15L294.65 433.32L295.24 432.47L295.83 431.6L296.42 430.71L297.03 429.79L297.63 428.85L298.25 427.89L298.87 426.9L299.5 425.89L299.57 425.79L299.64 425.69L299.74 425.59L299.84 425.49L299.96 425.38L300.09 425.27L300.23 425.16L300.39 425.05L300.57 424.93L300.76 424.81L300.96 424.69L301.18 424.57L301.42 424.44L301.68 424.31L301.96 424.17L302.25 424.04L302.56 423.89L302.89 423.74L303.25 423.59L303.62 423.43L304.01 423.27L304.43 423.1L304.87 422.93L305.32 422.75L305.81 422.57L306.31 422.37L306.84 422.18L307.4 421.97L307.98 421.76L308.58 421.54L309.21 421.32L309.87 421.09L310.55 420.85L311.26 420.6L312 420.35L312.76 420.08L313.56 419.81L314.38 419.53L315.24 419.24L316.12 418.95L317.05 418.63L317.99 418.31L318.95 417.99L319.92 417.65L320.9 417.32L321.89 416.97L322.89 416.62L323.9 416.27L324.92 415.91L325.95 415.55L326.98 415.18L328.01 414.81L329.05 414.44L330.09 414.06L331.13 413.69L332.17 413.31L333.21 412.93L334.25 412.55L335.29 412.17L336.32 411.79L337.35 411.4L338.37 411.02L339.39 410.64L340.39 410.27L341.39 409.89L342.38 409.52L343.36 409.14L344.32 408.78L345.27 408.41L346.21 408.05L347.13 407.69L348.04 407.34L348.92 406.99L349.79 406.65L350.64 406.31L351.47 405.98L352.28 405.65L353.07 405.34L353.83 405.03L354.56 404.72L354.61 404.71L354.65 404.7L354.69 404.69L354.73 404.7L354.77 404.7L354.81 404.71L354.85 404.73L354.89 404.75L354.93 404.77L354.97 404.8L355 404.83L355.04 404.87L355.08 404.92L355.12 404.96L355.16 405.01L355.2 405.07L355.24 405.13L355.27 405.2L355.31 405.27L355.35 405.34L355.38 405.42L355.42 405.5L355.46 405.59L355.49 405.68L355.52 405.77L355.56 405.87L355.59 405.97L355.63 406.08L355.66 406.19L355.69 406.3L355.72 406.42L355.75 406.54L355.78 406.66L355.81 406.79L355.84 406.92L355.87 407.06L355.9 407.2L355.92 407.34L355.95 407.49L355.97 407.64L356.04 408.03L356.12 408.45L356.21 408.89L356.31 409.35L356.43 409.84L356.55 410.34L356.68 410.87L356.82 411.41L356.97 411.96L357.12 412.54L357.29 413.12L357.46 413.72L357.63 414.32L357.82 414.94L358.01 415.57L358.2 416.2L358.4 416.83L358.61 417.47L358.82 418.12L359.03 418.76L359.24 419.41L359.46 420.05L359.68 420.69L359.9 421.33L360.13 421.96L360.35 422.58L360.58 423.2L360.8 423.81L361.03 424.4L361.25 424.99L361.48 425.56L361.7 426.12L361.92 426.66L362.13 427.18L362.35 427.69L362.56 428.17L362.77 428.64L362.97 429.08L363.17 429.5L363.36 429.89L363.91 430.98L364.48 432.06L365.06 433.12L365.66 434.18L366.27 435.22L366.9 436.25L367.54 437.26L368.19 438.26L368.85 439.25L369.53 440.23L370.22 441.19L370.92 442.13L371.64 443.06L372.36 443.98L373.1 444.88L373.85 445.77L374.61 446.64L375.38 447.49L376.16 448.33L376.95 449.16L377.75 449.96L378.56 450.75L379.38 451.52L380.2 452.28L381.04 453.02L381.89 453.73L382.74 454.44L383.6 455.12L384.47 455.78L385.35 456.43L386.24 457.05L387.13 457.66L388.03 458.25L388.93 458.81L389.85 459.36L390.76 459.88L391.69 460.39L392.62 460.87L393.55 461.34L394.49 461.78L394.97 461.99L395.45 462.2L395.93 462.41L396.4 462.6L396.88 462.8L397.36 462.98L397.83 463.16L398.31 463.33L398.79 463.5L399.26 463.66L399.74 463.82L400.22 463.97L400.7 464.11L401.18 464.25L401.66 464.38L402.14 464.51L402.63 464.63L403.12 464.74L403.61 464.85L404.1 464.96L404.59 465.05L405.09 465.15L405.59 465.23L406.1 465.32L406.6 465.39L407.12 465.47L407.63 465.53L408.15 465.59L408.67 465.65L409.2 465.7L409.73 465.74L410.27 465.79L410.81 465.82L411.36 465.85L411.91 465.88L412.47 465.9L413.03 465.91L413.6 465.92L414.18 465.93L414.76 465.93L415.65 465.93L416.54 465.91L417.41 465.88L418.28 465.84L419.14 465.78L419.99 465.72L420.84 465.64L421.67 465.56L422.5 465.46L423.33 465.35L424.14 465.22L424.96 465.08L425.76 464.93L426.56 464.77L427.36 464.6L428.16 464.41L428.95 464.21L429.73 464L430.52 463.77L431.3 463.53L432.08 463.27L432.86 463.01L433.63 462.72L434.41 462.43L435.19 462.12L435.96 461.79L436.74 461.46L437.51 461.1L438.29 460.74L439.07 460.35L439.85 459.96L440.64 459.54L441.43 459.12L442.22 458.68L443.01 458.22L443.81 457.75L444.61 457.26L445.42 456.75L446.23 456.23L447.04 455.7L448.73 454.54L450.37 453.33L451.98 452.07L453.56 450.76L455.1 449.4L456.59 447.98L458.06 446.52L459.48 445.02L460.86 443.46L462.21 441.87L463.51 440.23L464.77 438.54L465.99 436.82L467.17 435.06L468.31 433.26L469.4 431.42L470.45 429.55L471.46 427.64L472.42 425.7L473.34 423.73L474.21 421.73L475.03 419.7L475.81 417.63L476.53 415.55L477.22 413.43L477.85 411.29L478.43 409.13L478.96 406.95L479.45 404.74L479.88 402.52L480.26 400.28L480.59 398.02L480.87 395.74L481.09 393.45L481.26 391.14L481.38 388.83L481.44 386.5L481.44 384.16L481.39 381.81L481.29 379.46L481.24 378.68L481.18 377.9L481.12 377.1L481.05 376.29L480.97 375.47L480.88 374.65L480.78 373.81L480.68 372.97L480.57 372.13L480.45 371.28L480.33 370.42L480.19 369.56L480.06 368.7L479.91 367.84L479.76 366.97L479.6 366.1L479.44 365.24L479.27 364.37L479.1 363.5L478.92 362.64L478.73 361.78L478.54 360.93L478.35 360.08L478.15 359.23L477.94 358.39L477.73 357.56L477.52 356.73L477.3 355.92L477.08 355.11L476.86 354.31L476.63 353.52L476.39 352.75L476.16 351.99L475.92 351.24L475.68 350.5L475.43 349.78L475.18 349.07L474.93 348.38L474.68 347.7L474.42 347.05L471.97 340.86L476.63 336.69L481.29 332.53L485.42 333.23L486.66 333.44ZM424.36 471.37L424.07 471.38L423.76 471.39L423.44 471.41L423.12 471.43L422.78 471.45L422.43 471.47L422.07 471.5L421.7 471.53L421.32 471.56L420.93 471.6L420.53 471.64L420.12 471.68L419.7 471.73L419.27 471.77L418.82 471.83L418.37 471.88L417.9 471.93L417.43 471.99L416.94 472.05L416.44 472.12L415.93 472.19L415.4 472.25L414.87 472.33L414.32 472.4L413.76 472.48L413.19 472.56L412.61 472.64L412.02 472.72L411.41 472.81L410.79 472.89L410.16 472.98L409.52 473.08L408.86 473.17L408.19 473.27L407.51 473.37L406.82 473.47L404.63 473.79L402.51 474.09L400.45 474.38L398.45 474.66L396.51 474.92L394.62 475.18L392.77 475.42L390.96 475.65L389.2 475.87L387.46 476.07L385.76 476.27L384.08 476.45L382.42 476.63L380.77 476.79L379.14 476.95L377.51 477.1L375.89 477.23L374.26 477.36L372.63 477.48L370.99 477.59L369.34 477.69L367.66 477.79L365.97 477.87L364.24 477.95L362.49 478.02L360.7 478.09L358.86 478.15L356.99 478.2L355.06 478.25L353.08 478.29L351.04 478.33L348.95 478.36L346.78 478.39L344.54 478.41L342.23 478.43L339.84 478.44L337.37 478.45L334.81 478.46L332.15 478.46L329.4 478.47L326.76 478.47L324.24 478.46L321.83 478.46L319.53 478.46L317.33 478.45L315.23 478.44L313.23 478.43L311.3 478.42L309.45 478.4L307.68 478.38L305.97 478.36L304.32 478.33L302.72 478.29L301.17 478.25L299.66 478.21L298.19 478.15L296.74 478.1L295.32 478.03L293.91 477.96L292.51 477.88L291.12 477.79L289.73 477.7L288.32 477.6L286.9 477.48L285.46 477.36L284 477.23L282.5 477.09L280.96 476.94L279.37 476.77L277.74 476.6L276.04 476.41L274.28 476.22L272.45 476.01L270.55 475.78L268.56 475.55L266.48 475.3L264.31 475.04L262.04 474.76L259.66 474.47L257.16 474.17L256.38 474.07L255.6 473.98L254.82 473.88L254.05 473.79L253.29 473.71L252.53 473.62L251.78 473.54L251.04 473.45L250.31 473.37L249.59 473.3L248.88 473.22L248.18 473.15L247.5 473.08L246.82 473.01L246.16 472.94L245.52 472.88L244.89 472.82L244.27 472.76L243.68 472.71L243.09 472.66L242.53 472.61L241.99 472.56L241.46 472.52L240.95 472.48L240.47 472.44L240 472.41L239.56 472.38L239.14 472.35L238.74 472.33L238.37 472.31L238.02 472.29L237.7 472.28L237.4 472.27L237.13 472.26L236.88 472.26L236.67 472.27L236.48 472.27L236.33 472.28L236.2 472.3L236.1 472.31L235.91 472.37L235.73 472.43L235.56 472.49L235.4 472.57L235.24 472.65L235.1 472.73L234.97 472.83L234.85 472.93L234.74 473.04L234.64 473.16L234.55 473.29L234.47 473.42L234.4 473.57L234.34 473.72L234.29 473.88L234.25 474.04L234.22 474.22L234.2 474.4L234.19 474.6L234.19 474.8L234.2 475.01L234.22 475.24L234.25 475.47L234.29 475.71L234.35 475.96L234.41 476.22L234.48 476.49L234.56 476.77L234.66 477.06L234.76 477.36L234.87 477.67L234.99 477.99L235.13 478.32L235.27 478.67L235.43 479.02L235.59 479.39L235.76 479.76L235.95 480.15L236.14 480.55L236.35 480.96L236.72 481.68L237.12 482.41L237.54 483.15L237.98 483.9L238.45 484.66L238.94 485.43L239.46 486.21L239.99 486.99L240.55 487.79L241.13 488.59L241.73 489.4L242.35 490.22L242.99 491.04L243.66 491.87L244.34 492.71L245.04 493.55L245.76 494.39L246.49 495.24L247.25 496.1L248.02 496.95L248.81 497.81L249.61 498.67L250.43 499.54L251.27 500.4L252.13 501.27L252.99 502.13L253.88 503L254.77 503.87L255.68 504.73L256.61 505.6L257.54 506.46L258.49 507.32L259.45 508.18L260.43 509.03L261.41 509.88L262.41 510.73L263.41 511.57L264.43 512.41L265.45 513.25L266.49 514.07L267.68 515.01L268.87 515.93L270.06 516.82L271.25 517.7L272.43 518.55L273.62 519.38L274.8 520.19L275.99 520.98L277.17 521.76L278.36 522.51L279.55 523.24L280.73 523.95L281.92 524.64L283.11 525.32L284.31 525.97L285.5 526.61L286.7 527.22L287.9 527.82L289.1 528.4L290.31 528.96L291.52 529.5L292.74 530.02L293.96 530.53L295.19 531.01L296.42 531.48L297.66 531.94L298.9 532.37L300.15 532.79L301.41 533.19L302.67 533.57L303.94 533.94L305.22 534.28L306.5 534.62L307.8 534.93L309.1 535.23L310.41 535.52L311.74 535.78L313.07 536.03L314.41 536.27L315.76 536.49L315.95 536.52L316.17 536.55L316.4 536.58L316.65 536.6L316.92 536.63L317.2 536.65L317.5 536.68L317.81 536.7L318.14 536.72L318.48 536.75L318.83 536.77L319.2 536.79L319.58 536.81L319.97 536.82L320.37 536.84L320.78 536.86L321.21 536.87L321.64 536.89L322.08 536.9L322.53 536.91L322.99 536.93L323.45 536.94L323.92 536.95L324.4 536.95L324.89 536.96L325.37 536.97L325.87 536.97L326.36 536.98L326.86 536.98L327.37 536.98L327.87 536.98L328.38 536.98L328.89 536.98L329.4 536.98L329.91 536.97L330.42 536.97L330.93 536.96L331.43 536.95L331.94 536.94L332.44 536.93L333.17 536.92L333.88 536.9L334.57 536.88L335.23 536.86L335.88 536.84L336.5 536.82L337.11 536.8L337.7 536.77L338.27 536.75L338.82 536.72L339.36 536.69L339.89 536.66L340.4 536.63L340.9 536.59L341.38 536.56L341.85 536.52L342.32 536.48L342.77 536.44L343.22 536.39L343.65 536.35L344.08 536.3L344.5 536.25L344.92 536.19L345.33 536.13L345.74 536.07L346.14 536.01L346.55 535.94L346.95 535.87L347.35 535.8L347.75 535.72L348.15 535.64L348.55 535.56L348.95 535.47L349.36 535.38L349.77 535.29L350.19 535.19L350.61 535.09L351.04 534.98L351.48 534.87L351.92 534.76L352.94 534.49L353.96 534.2L354.98 533.9L356 533.59L357.02 533.27L358.04 532.94L359.06 532.59L360.08 532.22L361.1 531.85L362.11 531.46L363.13 531.06L364.15 530.65L365.17 530.22L366.19 529.78L367.21 529.32L368.23 528.86L369.25 528.38L370.27 527.89L371.29 527.38L372.31 526.86L373.33 526.33L374.35 525.78L375.37 525.22L376.39 524.65L377.41 524.06L378.44 523.47L379.46 522.85L380.49 522.23L381.51 521.59L382.54 520.94L383.56 520.27L384.59 519.59L385.62 518.9L386.65 518.19L387.68 517.47L388.71 516.74L389.74 515.99L390.77 515.23L391.8 514.46L392.84 513.67L393.62 513.06L394.42 512.42L395.25 511.75L396.1 511.04L396.97 510.31L397.86 509.54L398.77 508.76L399.68 507.94L400.62 507.11L401.56 506.26L402.51 505.38L403.46 504.5L404.43 503.59L405.39 502.68L406.36 501.76L407.32 500.82L408.28 499.88L409.24 498.94L410.19 497.99L411.13 497.04L412.06 496.1L412.98 495.15L413.89 494.21L414.78 493.28L415.65 492.36L416.5 491.44L417.34 490.54L418.14 489.66L418.92 488.79L419.68 487.93L420.41 487.1L421.1 486.29L421.76 485.51L422.39 484.75L422.98 484.01L423.53 483.31L424.04 482.64L424.51 482L424.94 481.4L425.32 480.83L425.64 480.34L425.95 479.86L426.25 479.39L426.54 478.94L426.81 478.5L427.07 478.08L427.32 477.67L427.55 477.28L427.77 476.9L427.98 476.54L428.17 476.19L428.34 475.85L428.5 475.53L428.64 475.22L428.77 474.92L428.88 474.64L428.97 474.36L429.05 474.11L429.1 473.86L429.14 473.63L429.16 473.41L429.16 473.2L429.14 473L429.1 472.82L429.04 472.65L428.96 472.49L428.86 472.34L428.74 472.2L428.6 472.07L428.43 471.96L428.24 471.85L428.03 471.76L427.79 471.67L427.53 471.6L427.25 471.54L426.94 471.48L426.61 471.44L426.25 471.41L425.87 471.38L425.46 471.37L425.2 471.36L424.93 471.36L424.65 471.37L424.36 471.37Z" id="a5AYWb2m70"></path><path d="M393.16 506.53C400.18 500.85 416.23 484.84 420.83 478.94C421 478.72 421.86 477.61 423.41 475.62C421.62 475.84 420.63 475.97 420.43 475.99C418.79 476.19 413.52 477.07 408.72 477.93C363.95 486 300.89 485.89 250.76 477.67C244.43 476.63 239.12 475.9 238.96 476.06C238.2 476.82 247.09 488.84 252.94 494.93C272.63 515.45 291.86 526.9 313.11 530.78C320.89 532.19 337.23 532.23 345.18 530.84C360.61 528.15 376.21 520.24 393.16 506.53Z" id="a5Vripza4"></path><path d="M419.91 306.25L420.75 306.29L421.59 306.34L422.41 306.41L423.23 306.5L424.03 306.6L424.84 306.71L425.63 306.84L426.42 306.99L427.2 307.15L427.98 307.34L428.75 307.53L429.51 307.75L430.27 307.98L431.03 308.23L431.78 308.49L432.53 308.77L433.27 309.07L434.02 309.39L434.75 309.73L435.49 310.08L436.22 310.45L436.96 310.84L437.69 311.25L438.42 311.68L439.14 312.12L439.87 312.59L440.6 313.07L441.33 313.57L442.06 314.1L442.79 314.64L443.52 315.2L444.25 315.78L444.98 316.38L445.72 317L446.46 317.64L447.2 318.3L447.94 318.98L448.69 319.68L449.21 320.18L449.71 320.66L450.2 321.15L450.69 321.63L451.16 322.12L451.63 322.6L452.09 323.08L452.54 323.56L452.98 324.04L453.42 324.52L453.84 325L454.27 325.48L454.68 325.97L455.09 326.45L455.49 326.94L455.88 327.43L456.27 327.93L456.66 328.42L457.04 328.93L457.41 329.43L457.78 329.94L458.15 330.46L458.51 330.98L458.87 331.51L459.22 332.04L459.58 332.58L459.93 333.13L460.28 333.69L460.62 334.25L460.97 334.82L461.31 335.4L461.65 335.99L461.99 336.59L462.33 337.2L462.67 337.82L463.01 338.45L463.35 339.1L463.69 339.75L464.03 340.41L464.37 341.09L464.84 342.03L465.29 342.96L465.73 343.89L466.16 344.82L466.57 345.75L466.98 346.68L467.37 347.61L467.75 348.55L468.12 349.48L468.48 350.41L468.83 351.35L469.16 352.28L469.49 353.22L469.8 354.16L470.11 355.11L470.4 356.06L470.68 357.01L470.95 357.97L471.22 358.93L471.47 359.9L471.71 360.87L471.94 361.85L472.16 362.84L472.37 363.83L472.57 364.83L472.76 365.84L472.95 366.85L473.12 367.88L473.28 368.91L473.44 369.95L473.58 371L473.72 372.06L473.84 373.13L473.96 374.21L474.07 375.3L474.17 376.4L474.26 377.52L474.34 378.65L474.42 379.79L474.48 380.94L474.59 383.67L474.6 386.38L474.54 389.08L474.4 391.76L474.17 394.42L473.87 397.06L473.49 399.67L473.03 402.25L472.5 404.81L471.9 407.33L471.22 409.82L470.48 412.27L469.66 414.69L468.78 417.07L467.83 419.4L466.81 421.69L465.73 423.94L464.59 426.13L463.39 428.28L462.12 430.37L460.8 432.41L459.42 434.39L457.99 436.31L456.5 438.17L454.95 439.97L453.36 441.7L451.71 443.37L450.02 444.96L448.28 446.48L446.49 447.93L444.65 449.3L442.77 450.6L440.85 451.81L438.89 452.94L436.89 453.99L434.85 454.95L432.77 455.82L430.66 456.6L428.51 457.29L426.33 457.88L425.18 458.15L424.03 458.4L422.9 458.62L421.76 458.81L420.64 458.97L419.52 459.1L418.4 459.21L417.3 459.29L416.2 459.35L415.1 459.37L414.01 459.37L412.92 459.34L411.85 459.29L410.77 459.21L409.71 459.1L408.64 458.96L407.59 458.8L406.54 458.6L405.49 458.39L404.45 458.14L403.42 457.87L402.39 457.57L401.37 457.24L400.35 456.88L399.34 456.5L398.34 456.09L397.34 455.65L396.34 455.19L395.35 454.7L394.37 454.18L393.39 453.63L392.42 453.05L391.45 452.45L390.48 451.82L389.53 451.17L388.57 450.48L387.63 449.77L386.68 449.03L385.75 448.27L384.82 447.48L383.71 446.48L382.62 445.45L381.56 444.37L380.51 443.26L379.48 442.1L378.48 440.9L377.5 439.67L376.54 438.4L375.6 437.09L374.68 435.75L373.79 434.37L372.93 432.97L372.08 431.53L371.27 430.06L370.47 428.56L369.71 427.04L368.97 425.49L368.25 423.91L367.56 422.31L366.9 420.69L366.27 419.04L365.67 417.37L365.09 415.68L364.55 413.97L364.03 412.25L363.55 410.51L363.09 408.75L362.67 406.98L362.27 405.19L361.91 403.4L361.58 401.59L361.29 399.77L361.02 397.94L360.79 396.11L360.6 394.26L360.44 392.42L360.31 390.56L360.22 388.71L360.16 386.85L360.14 384.99L360.15 384.4L360.16 383.77L360.18 383.13L360.21 382.45L360.24 381.76L360.28 381.04L360.33 380.31L360.38 379.55L360.44 378.78L360.51 378L360.58 377.2L360.66 376.39L360.74 375.57L360.83 374.74L360.92 373.9L361.02 373.05L361.13 372.2L361.23 371.35L361.35 370.5L361.46 369.64L361.58 368.79L361.71 367.94L361.84 367.09L361.97 366.25L362.1 365.42L362.24 364.59L362.38 363.78L362.52 362.97L362.66 362.18L362.81 361.41L362.96 360.65L363.11 359.9L363.26 359.18L363.41 358.48L363.56 357.8L363.72 357.14L363.87 356.51L364.02 355.9L364.18 355.32L364.33 354.77L364.61 353.87L364.9 352.96L365.23 352.03L365.58 351.09L365.95 350.13L366.35 349.17L366.77 348.19L367.21 347.2L367.67 346.21L368.15 345.21L368.65 344.21L369.16 343.21L369.7 342.2L370.25 341.19L370.82 340.18L371.4 339.18L371.99 338.17L372.6 337.18L373.22 336.19L373.86 335.2L374.5 334.23L375.15 333.26L375.81 332.31L376.48 331.37L377.15 330.44L377.83 329.52L378.52 328.63L379.21 327.75L379.9 326.89L380.6 326.05L381.3 325.24L382 324.44L382.7 323.67L383.4 322.93L384.1 322.21L384.79 321.52L385.48 320.87L386.17 320.24L386.85 319.64L387.53 319.08L388.4 318.39L389.25 317.72L390.09 317.07L390.92 316.44L391.74 315.83L392.56 315.25L393.36 314.68L394.15 314.14L394.93 313.61L395.71 313.11L396.48 312.63L397.25 312.16L398 311.72L398.76 311.29L399.5 310.89L400.25 310.5L400.98 310.13L401.72 309.78L402.45 309.45L403.18 309.13L403.91 308.83L404.64 308.55L405.37 308.29L406.1 308.04L406.83 307.82L407.56 307.6L408.29 307.41L409.02 307.23L409.76 307.06L410.5 306.91L411.24 306.78L411.99 306.66L412.74 306.55L413.5 306.47L414.27 306.39L415.04 306.33L415.82 306.28L416.61 306.25L417.4 306.23L418.2 306.22L419.06 306.23L419.91 306.25ZM416.23 330.13L416.16 330.13L416.09 330.13L416.01 330.13L415.94 330.13L415.86 330.13L415.79 330.14L415.71 330.14L415.63 330.14L415.55 330.14L415.48 330.14L415.4 330.14L415.32 330.15L415.24 330.15L415.15 330.15L415.07 330.15L414.99 330.16L414.9 330.16L414.82 330.16L414.73 330.17L414.65 330.17L414.56 330.17L414.47 330.18L414.38 330.18L414.29 330.18L414.2 330.19L414.11 330.19L414.02 330.2L413.92 330.2L413.83 330.21L413.73 330.21L413.64 330.22L413.54 330.22L413.44 330.23L412.93 330.25L412.43 330.29L411.93 330.32L411.45 330.37L410.99 330.42L410.53 330.47L410.08 330.53L409.64 330.59L409.21 330.66L408.79 330.74L408.38 330.82L407.97 330.91L407.58 331.01L407.19 331.11L406.8 331.22L406.43 331.34L406.06 331.46L405.69 331.59L405.33 331.73L404.98 331.87L404.63 332.03L404.28 332.19L403.94 332.36L403.6 332.54L403.27 332.72L402.93 332.92L402.6 333.12L402.27 333.33L401.95 333.56L401.62 333.79L401.29 334.03L400.97 334.28L400.64 334.54L400.32 334.81L399.99 335.09L399.66 335.38L399.33 335.68L399 335.99L398.66 336.32L398.32 336.65L397.72 337.28L397.13 337.94L396.55 338.64L395.98 339.38L395.43 340.15L394.88 340.96L394.35 341.8L393.83 342.68L393.32 343.58L392.82 344.52L392.34 345.5L391.87 346.5L391.42 347.53L390.97 348.59L390.54 349.68L390.13 350.8L389.73 351.94L389.34 353.11L388.97 354.31L388.61 355.53L388.27 356.77L387.94 358.04L387.63 359.33L387.34 360.64L387.06 361.97L386.79 363.33L386.55 364.7L386.31 366.09L386.1 367.5L385.9 368.92L385.72 370.37L385.56 371.83L385.41 373.3L385.28 374.79L385.17 376.29L385.08 377.8L385.01 379.33L384.95 380.87L384.91 382.42L384.9 383.97L384.89 385.13L384.9 386.27L384.93 387.4L384.96 388.52L385 389.63L385.05 390.72L385.12 391.8L385.2 392.88L385.28 393.94L385.38 394.98L385.49 396.02L385.61 397.05L385.74 398.06L385.89 399.06L386.04 400.06L386.21 401.04L386.38 402.01L386.57 402.97L386.77 403.92L386.98 404.86L387.2 405.78L387.43 406.7L387.68 407.61L387.93 408.51L388.2 409.4L388.48 410.27L388.77 411.14L389.07 412L389.39 412.85L389.71 413.68L390.05 414.51L390.39 415.33L390.75 416.14L391.12 416.94L391.51 417.74L391.9 418.52L392.31 419.29L392.72 420.06L393.15 420.81L393.6 421.56L393.84 421.97L394.11 422.37L394.38 422.78L394.66 423.19L394.95 423.6L395.25 424.01L395.55 424.41L395.87 424.82L396.19 425.22L396.52 425.62L396.86 426.02L397.2 426.42L397.55 426.81L397.91 427.19L398.27 427.58L398.63 427.95L399 428.33L399.37 428.69L399.74 429.05L400.11 429.4L400.49 429.75L400.87 430.09L401.25 430.42L401.63 430.74L402.01 431.05L402.39 431.36L402.77 431.65L403.14 431.93L403.52 432.2L403.89 432.46L404.26 432.71L404.63 432.95L404.99 433.17L405.35 433.39L405.7 433.58L406.05 433.77L406.39 433.94L406.72 434.09L407.05 434.23L407.38 434.36L407.72 434.48L408.08 434.59L408.45 434.7L408.83 434.8L409.21 434.89L409.61 434.97L410.01 435.04L410.42 435.11L410.84 435.17L411.26 435.22L411.69 435.27L412.13 435.31L412.57 435.34L413.01 435.36L413.46 435.37L413.91 435.38L414.36 435.38L414.81 435.38L415.26 435.36L415.72 435.34L416.17 435.31L416.62 435.28L417.08 435.24L417.53 435.19L417.97 435.13L418.42 435.07L418.85 435L419.29 434.92L419.72 434.84L420.14 434.75L420.56 434.65L420.97 434.55L421.38 434.44L421.78 434.32L422.16 434.19L422.54 434.06L422.91 433.92L423.27 433.78L423.62 433.63L423.95 433.47L424.74 433.07L425.52 432.64L426.3 432.17L427.06 431.68L427.82 431.15L428.57 430.59L429.31 430.01L430.04 429.39L430.76 428.75L431.47 428.08L432.17 427.38L432.86 426.66L433.54 425.9L434.21 425.12L434.86 424.32L435.51 423.49L436.14 422.64L436.77 421.76L437.38 420.86L437.97 419.93L438.56 418.98L439.13 418.01L439.68 417.02L440.22 416.01L440.75 414.97L441.27 413.92L441.76 412.84L442.25 411.75L442.71 410.64L443.17 409.5L443.6 408.35L444.02 407.19L444.42 406L444.81 404.8L445.18 403.58L445.53 402.35L445.86 401.1L446.18 399.84L446.47 398.56L446.75 397.27L446.88 396.63L447 395.98L447.11 395.29L447.22 394.59L447.32 393.88L447.42 393.14L447.51 392.39L447.6 391.62L447.68 390.84L447.75 390.05L447.82 389.24L447.88 388.43L447.93 387.6L447.98 386.77L448.03 385.94L448.06 385.09L448.09 384.25L448.12 383.4L448.14 382.54L448.15 381.69L448.16 380.84L448.16 379.99L448.15 379.15L448.14 378.3L448.12 377.47L448.1 376.64L448.07 375.81L448.03 375L447.99 374.2L447.94 373.41L447.89 372.63L447.83 371.87L447.76 371.12L447.69 370.38L447.61 369.67L447.52 368.97L447.43 368.29L447.33 367.64L447.22 367L447.11 366.39L446.87 365.17L446.6 363.96L446.32 362.77L446.01 361.6L445.69 360.44L445.35 359.29L445 358.17L444.62 357.06L444.22 355.97L443.81 354.89L443.38 353.84L442.94 352.8L442.47 351.78L441.99 350.78L441.49 349.8L440.98 348.84L440.45 347.9L439.9 346.97L439.34 346.07L438.76 345.19L438.16 344.32L437.55 343.48L436.92 342.66L436.28 341.86L435.62 341.09L434.95 340.33L434.26 339.6L433.56 338.88L432.85 338.2L432.12 337.53L431.37 336.89L430.61 336.27L429.84 335.67L429.06 335.1L428.26 334.55L427.45 334.03L426.62 333.53L425.78 333.05L424.93 332.6L424.07 332.18L423.83 332.07L423.6 331.96L423.38 331.85L423.16 331.75L422.94 331.66L422.74 331.56L422.53 331.47L422.34 331.39L422.14 331.3L421.95 331.23L421.77 331.15L421.58 331.08L421.4 331.01L421.23 330.94L421.05 330.88L420.88 330.82L420.71 330.76L420.55 330.7L420.38 330.65L420.22 330.6L420.05 330.56L419.89 330.51L419.73 330.47L419.56 330.43L419.4 330.4L419.24 330.36L419.07 330.33L418.91 330.31L418.74 330.28L418.57 330.26L418.4 330.23L418.23 330.22L418.05 330.2L417.87 330.18L417.69 330.17L417.5 330.16L417.32 330.15L417.12 330.14L416.93 330.14L416.72 330.13L416.65 330.13L416.59 330.13L416.52 330.13L416.45 330.13L416.37 330.13L416.3 330.13L416.23 330.13Z" id="d2ZdcLNhmf"></path><path d="M246.82 303.06L247.38 303.08L247.94 303.11L248.5 303.14L249.07 303.19L249.64 303.24L250.2 303.3L250.77 303.36L251.34 303.44L251.91 303.52L252.48 303.61L253.05 303.7L253.62 303.81L254.19 303.92L254.76 304.04L255.33 304.17L255.9 304.31L256.47 304.45L257.04 304.6L257.6 304.76L258.17 304.93L258.73 305.1L259.29 305.28L259.85 305.47L260.41 305.66L260.97 305.87L261.52 306.08L262.07 306.3L262.62 306.52L263.16 306.76L263.7 307L264.24 307.24L264.78 307.5L265.31 307.76L265.83 308.03L266.36 308.3L266.88 308.59L267.39 308.88L267.78 309.11L268.19 309.36L268.61 309.64L269.05 309.93L269.49 310.24L269.95 310.57L270.42 310.92L270.9 311.29L271.39 311.67L271.89 312.07L272.4 312.48L272.91 312.9L273.42 313.33L273.94 313.78L274.47 314.24L275 314.71L275.53 315.18L276.06 315.67L276.59 316.16L277.12 316.66L277.65 317.16L278.17 317.67L278.69 318.19L279.21 318.7L279.73 319.22L280.23 319.74L280.73 320.26L281.22 320.78L281.7 321.3L282.18 321.81L282.64 322.32L283.09 322.83L283.53 323.34L283.95 323.84L284.36 324.33L284.76 324.82L285.14 325.29L285.5 325.76L285.84 326.22L286.17 326.67L287.12 328.03L288.04 329.43L288.94 330.86L289.82 332.32L290.67 333.81L291.5 335.33L292.3 336.88L293.08 338.46L293.83 340.06L294.55 341.68L295.25 343.32L295.92 344.99L296.56 346.67L297.18 348.37L297.77 350.09L298.33 351.82L298.86 353.57L299.36 355.32L299.84 357.09L300.28 358.87L300.69 360.65L301.08 362.45L301.43 364.24L301.75 366.04L302.05 367.85L302.3 369.65L302.53 371.45L302.73 373.26L302.89 375.05L303.02 376.85L303.12 378.64L303.18 380.42L303.21 382.19L303.2 383.95L303.16 385.7L303.09 387.43L302.98 389.16L302.83 390.86L302.65 392.55L302.43 394.22L302.08 396.49L301.68 398.73L301.22 400.95L300.71 403.14L300.14 405.3L299.53 407.44L298.86 409.54L298.15 411.61L297.39 413.66L296.58 415.67L295.73 417.64L294.83 419.58L293.88 421.48L292.89 423.35L291.86 425.17L290.79 426.96L289.68 428.7L288.52 430.4L287.33 432.06L286.1 433.68L284.83 435.24L283.52 436.77L282.18 438.24L280.81 439.66L279.4 441.04L277.95 442.36L276.48 443.63L274.97 444.85L273.44 446.01L271.87 447.11L270.28 448.16L268.66 449.15L267.01 450.09L265.33 450.96L263.64 451.77L261.91 452.51L260.17 453.19L258.4 453.81L256.61 454.36L254.8 454.85L253.65 455.12L252.51 455.36L251.37 455.58L250.24 455.77L249.11 455.93L247.99 456.07L246.88 456.18L245.77 456.26L244.67 456.31L243.57 456.34L242.48 456.34L241.4 456.31L240.32 456.25L239.25 456.17L238.18 456.06L237.12 455.92L236.06 455.76L235.01 455.57L233.97 455.35L232.93 455.1L231.89 454.83L230.87 454.53L229.84 454.2L228.83 453.85L227.82 453.46L226.81 453.05L225.81 452.62L224.82 452.15L223.83 451.66L222.84 451.14L221.86 450.59L220.89 450.02L219.92 449.42L218.96 448.79L218 448.13L217.05 447.45L216.1 446.74L215.16 446L214.22 445.23L213.29 444.44L212.09 443.36L210.91 442.24L209.76 441.06L208.63 439.85L207.53 438.59L206.46 437.28L205.41 435.94L204.39 434.55L203.4 433.13L202.44 431.67L201.5 430.17L200.6 428.64L199.72 427.07L198.87 425.47L198.06 423.84L197.27 422.18L196.52 420.49L195.8 418.78L195.11 417.03L194.45 415.27L193.83 413.47L193.24 411.66L192.68 409.82L192.16 407.97L191.68 406.1L191.23 404.2L190.81 402.3L190.43 400.37L190.09 398.44L189.79 396.49L189.52 394.53L189.29 392.56L189.1 390.58L188.95 388.59L188.84 386.6L188.77 384.6L188.74 382.6L188.75 380.6L188.8 378.59L188.89 376.59L188.96 375.58L189.03 374.56L189.11 373.54L189.2 372.52L189.3 371.49L189.41 370.45L189.52 369.42L189.65 368.39L189.78 367.36L189.92 366.33L190.06 365.3L190.22 364.28L190.38 363.27L190.54 362.27L190.72 361.27L190.9 360.28L191.08 359.31L191.27 358.35L191.46 357.4L191.66 356.47L191.87 355.55L192.07 354.66L192.29 353.78L192.5 352.92L192.72 352.08L192.94 351.27L193.17 350.48L193.39 349.72L193.62 348.98L193.85 348.27L194.09 347.59L194.32 346.94L194.56 346.32L194.79 345.74L195.03 345.19L195.27 344.67L195.51 344.19L195.74 343.75L195.98 343.35L196.22 342.99L196.27 342.91L196.33 342.82L196.39 342.72L196.46 342.62L196.53 342.51L196.6 342.4L196.67 342.28L196.75 342.15L196.83 342.02L196.91 341.89L196.99 341.75L197.08 341.6L197.17 341.45L197.26 341.29L197.35 341.13L197.44 340.97L197.54 340.8L197.63 340.63L197.73 340.46L197.83 340.28L197.93 340.11L198.03 339.92L198.13 339.74L198.23 339.55L198.34 339.36L198.44 339.17L198.54 338.98L198.65 338.79L198.75 338.6L198.86 338.4L198.96 338.2L199.06 338.01L199.17 337.81L199.27 337.61L199.37 337.42L199.47 337.22L199.57 337.03L199.67 336.83L199.77 336.64L199.87 336.45L200.41 335.38L200.99 334.33L201.59 333.28L202.22 332.23L202.87 331.19L203.55 330.16L204.25 329.14L204.98 328.13L205.72 327.13L206.49 326.14L207.28 325.16L208.08 324.19L208.91 323.23L209.75 322.29L210.62 321.36L211.5 320.44L212.39 319.55L213.3 318.66L214.22 317.8L215.16 316.95L216.11 316.11L217.08 315.3L218.05 314.51L219.04 313.73L220.03 312.98L221.04 312.24L222.05 311.53L223.08 310.84L224.1 310.18L225.14 309.54L226.18 308.92L227.22 308.33L228.27 307.76L229.33 307.22L230.38 306.71L231.44 306.23L232.5 305.77L233.56 305.34L234.61 304.94L235.67 304.58L235.89 304.51L236.11 304.44L236.33 304.37L236.55 304.3L236.78 304.24L237 304.17L237.23 304.11L237.45 304.05L237.68 304L237.91 303.94L238.14 303.88L238.37 303.83L238.6 303.78L238.83 303.73L239.06 303.69L239.3 303.64L239.53 303.6L239.77 303.55L240 303.51L240.24 303.47L240.48 303.44L240.72 303.4L240.96 303.37L241.2 303.34L241.44 303.31L241.68 303.28L241.93 303.25L242.17 303.23L242.42 303.2L242.66 303.18L242.91 303.16L243.15 303.14L243.4 303.13L243.65 303.11L243.9 303.1L244.15 303.08L244.4 303.07L244.65 303.07L244.9 303.06L245.15 303.05L245.7 303.05L246.26 303.05L246.82 303.06ZM244.7 327.1L244.63 327.1L244.56 327.1L244.49 327.1L244.41 327.1L244.34 327.1L244.26 327.1L244.18 327.1L244.11 327.1L244.03 327.1L243.95 327.11L243.87 327.11L243.79 327.11L243.71 327.11L243.63 327.12L243.54 327.12L243.46 327.12L243.38 327.12L243.29 327.13L243.21 327.13L243.12 327.13L243.03 327.14L242.94 327.14L242.86 327.14L242.77 327.15L242.67 327.15L242.58 327.16L242.49 327.16L242.4 327.17L242.3 327.17L242.21 327.17L242.11 327.18L242.01 327.18L241.92 327.19L241.4 327.22L240.9 327.25L240.41 327.29L239.93 327.33L239.46 327.38L239 327.43L238.55 327.49L238.11 327.56L237.68 327.63L237.26 327.71L236.85 327.79L236.45 327.88L236.05 327.97L235.66 328.07L235.28 328.18L234.9 328.3L234.53 328.42L234.17 328.55L233.81 328.69L233.45 328.84L233.1 328.99L232.76 329.15L232.42 329.32L232.08 329.5L231.74 329.69L231.41 329.88L231.08 330.08L230.75 330.3L230.42 330.52L230.1 330.75L229.77 330.99L229.44 331.24L229.12 331.5L228.79 331.77L228.46 332.05L228.14 332.34L227.81 332.64L227.47 332.95L227.14 333.28L226.8 333.61L226.2 334.24L225.61 334.9L225.03 335.6L224.46 336.33L223.9 337.1L223.36 337.91L222.83 338.75L222.31 339.62L221.8 340.53L221.3 341.46L220.82 342.43L220.35 343.43L219.89 344.45L219.45 345.51L219.02 346.59L218.61 347.7L218.21 348.84L217.82 350L217.45 351.19L217.09 352.4L216.75 353.63L216.42 354.89L216.11 356.17L215.81 357.47L215.53 358.79L215.27 360.13L215.02 361.49L214.79 362.87L214.57 364.26L214.37 365.68L214.19 367.11L214.03 368.55L213.88 370.01L213.75 371.48L213.64 372.96L213.55 374.46L213.47 375.97L213.42 377.49L213.38 379.02L213.36 380.56L213.36 381.74L213.37 382.91L213.39 384.06L213.42 385.2L213.46 386.33L213.52 387.44L213.58 388.55L213.66 389.63L213.74 390.71L213.84 391.77L213.95 392.82L214.07 393.86L214.2 394.88L214.34 395.9L214.49 396.9L214.66 397.89L214.83 398.87L215.02 399.84L215.22 400.79L215.43 401.74L215.65 402.67L215.88 403.59L216.13 404.5L216.38 405.41L216.65 406.3L216.93 407.18L217.22 408.05L217.52 408.91L217.83 409.76L218.16 410.6L218.5 411.44L218.85 412.26L219.21 413.07L219.58 413.88L219.96 414.67L220.36 415.46L220.77 416.24L221.19 417.01L221.62 417.77L222.07 418.52L222.32 418.93L222.58 419.34L222.85 419.75L223.13 420.16L223.42 420.56L223.72 420.97L224.03 421.38L224.34 421.78L224.67 422.19L225 422.59L225.33 422.99L225.68 423.38L226.03 423.77L226.38 424.16L226.74 424.54L227.1 424.92L227.47 425.29L227.84 425.66L228.21 426.02L228.59 426.37L228.96 426.71L229.34 427.05L229.72 427.38L230.1 427.7L230.48 428.02L230.86 428.32L231.24 428.61L231.62 428.9L231.99 429.17L232.36 429.43L232.73 429.68L233.1 429.91L233.46 430.14L233.82 430.35L234.17 430.55L234.52 430.73L234.86 430.9L235.2 431.06L235.53 431.2L235.85 431.32L236.19 431.44L236.55 431.56L236.92 431.66L237.3 431.76L237.69 431.85L238.08 431.93L238.48 432.01L238.9 432.07L239.31 432.13L239.74 432.19L240.17 432.23L240.6 432.27L241.04 432.3L241.48 432.32L241.93 432.34L242.38 432.35L242.83 432.35L243.28 432.34L243.74 432.33L244.19 432.31L244.64 432.28L245.1 432.24L245.55 432.2L246 432.15L246.44 432.1L246.89 432.03L247.33 431.96L247.76 431.89L248.19 431.8L248.62 431.71L249.04 431.61L249.45 431.51L249.85 431.4L250.25 431.28L250.64 431.16L251.01 431.03L251.38 430.89L251.74 430.74L252.09 430.59L252.43 430.44L253.21 430.03L253.99 429.6L254.77 429.14L255.53 428.64L256.29 428.11L257.04 427.56L257.78 426.97L258.51 426.36L259.23 425.72L259.94 425.04L260.64 424.35L261.33 423.62L262.01 422.87L262.68 422.09L263.34 421.28L263.98 420.46L264.62 419.6L265.24 418.72L265.85 417.82L266.45 416.9L267.03 415.95L267.6 414.98L268.15 413.99L268.7 412.97L269.22 411.94L269.74 410.88L270.24 409.81L270.72 408.71L271.19 407.6L271.64 406.47L272.08 405.32L272.49 404.15L272.9 402.97L273.28 401.76L273.65 400.55L274 399.31L274.33 398.07L274.65 396.8L274.95 395.53L275.22 394.24L275.35 393.6L275.47 392.94L275.58 392.26L275.69 391.56L275.8 390.84L275.89 390.1L275.98 389.35L276.07 388.59L276.15 387.8L276.22 387.01L276.29 386.21L276.35 385.39L276.41 384.57L276.45 383.74L276.5 382.9L276.54 382.06L276.57 381.21L276.59 380.36L276.61 379.51L276.62 378.66L276.63 377.81L276.63 376.96L276.63 376.11L276.62 375.27L276.6 374.43L276.57 373.6L276.54 372.78L276.51 371.97L276.47 371.16L276.42 370.37L276.36 369.59L276.3 368.83L276.23 368.08L276.16 367.35L276.08 366.63L275.99 365.93L275.9 365.26L275.8 364.6L275.7 363.97L275.59 363.36L275.34 362.14L275.07 360.93L274.79 359.74L274.49 358.56L274.17 357.4L273.83 356.26L273.47 355.13L273.09 354.02L272.7 352.93L272.29 351.86L271.86 350.8L271.41 349.77L270.95 348.75L270.46 347.75L269.97 346.76L269.45 345.8L268.92 344.86L268.37 343.94L267.81 343.03L267.23 342.15L266.63 341.29L266.02 340.45L265.4 339.63L264.75 338.83L264.1 338.05L263.42 337.29L262.74 336.56L262.04 335.85L261.32 335.16L260.59 334.49L259.85 333.85L259.09 333.23L258.32 332.63L257.53 332.06L256.73 331.51L255.92 330.99L255.09 330.49L254.26 330.02L253.4 329.57L252.54 329.14L252.3 329.03L252.07 328.92L251.85 328.82L251.63 328.72L251.42 328.62L251.21 328.53L251.01 328.44L250.81 328.35L250.61 328.27L250.42 328.19L250.24 328.11L250.06 328.04L249.88 327.97L249.7 327.9L249.53 327.84L249.36 327.78L249.19 327.72L249.02 327.67L248.85 327.62L248.69 327.57L248.53 327.52L248.36 327.48L248.2 327.44L248.04 327.4L247.87 327.36L247.71 327.33L247.55 327.3L247.38 327.27L247.21 327.24L247.04 327.22L246.87 327.2L246.7 327.18L246.52 327.16L246.35 327.15L246.16 327.13L245.98 327.12L245.79 327.11L245.6 327.11L245.4 327.1L245.2 327.1L245.13 327.1L245.06 327.1L244.99 327.1L244.92 327.09L244.85 327.09L244.78 327.09L244.7 327.1Z" id="a3crpS6Ev4"></path><path d="M200.58 442.78C201.22 442.57 200.37 440.76 198.06 437.38C191.53 427.83 187.17 417.35 184.31 404.29C182.39 395.49 182.38 372.04 184.3 362.34C186.14 353.03 189.01 343.72 192.1 337C193.53 333.92 194.69 331.1 194.69 330.74C194.69 329.51 190.07 330.09 188.02 331.58C186.88 332.39 182.07 334.42 177.33 336.08C163.15 341.04 152.63 347.82 142.23 358.71C130.15 371.37 124.1 386.53 124.1 404.19C124.1 416 129.84 441.52 134.06 448.45C135.51 450.84 135.54 450.85 140.63 450.45C143.44 450.23 148.47 449.86 151.81 449.62C162.34 448.88 196.95 444.03 200.58 442.78Z" id="f8j6MrW2zG"></path><path d="M341.74 404.28C342.56 403.96 346.68 402.37 354.08 399.51C354.26 390.86 354.36 386.06 354.38 385.1C354.6 374.56 355.09 368.74 356.21 363.4C360.59 342.52 369.33 325.65 381.51 314.59C386.74 309.84 399.91 302.94 407.84 300.79C414.21 299.06 424.65 299.27 431.11 301.26C446.07 305.87 457.75 316.25 469.05 335C469.72 336.1 470.34 335.86 474.18 332.98C482.08 327.06 488.84 314.92 490.71 303.31C494.4 280.38 480.41 254.48 458.04 242.85C452.27 239.85 442.34 236.73 438.53 236.73C437.41 236.73 434.76 238.42 431.62 241.12C404.17 264.75 366.29 285.17 316.58 303.14C308.19 306.18 297.65 309.78 293.16 311.14C288.68 312.51 285.01 313.83 285.02 314.08C285.02 314.33 287.04 317.04 289.49 320.1C294.55 326.42 301.36 339.1 304.23 347.54C308.12 359.01 309.55 368.13 309.6 381.7C309.65 394.99 308.65 401.9 305.2 412.25C303.96 415.95 303.75 417.37 304.44 417.37C304.96 417.37 310.79 415.5 317.4 413.21C324 410.92 334.96 406.9 341.74 404.28Z" id="aM4xxzvqD"></path><path d="M223.25 303.12C234.54 297.7 238.99 296.49 247.4 296.54C257.66 296.6 267.77 300.18 276.01 306.66C277.53 307.86 279.52 308.84 280.42 308.84C281.33 308.84 290.16 306.13 300.05 302.83C353.56 284.95 395.46 263.54 426.77 238.05C430.98 234.63 432.11 233.32 431.5 232.58C431.06 232.04 429.37 226.36 427.74 219.94C422.69 199.99 416.34 184.35 406.67 168C391.73 142.78 372.93 123.02 349 107.4C333.97 97.58 317.96 91.21 299.3 87.61C289.65 85.75 271.86 82.76 271.6 82.95C271.53 83 272.81 85.79 274.44 89.15C278.08 96.67 280.34 105.25 280.96 113.93C281.64 123.5 280.42 125.64 265.84 140.36C249.65 156.71 243.61 165.03 239.95 176.02C237.46 183.5 236.83 189.64 237.94 195.75C238.88 200.94 241.31 207.37 242.78 208.54C243.3 208.96 245.87 208.83 249.33 208.21C254.99 207.2 259.58 207.43 260.4 208.76C260.64 209.14 257.82 210.84 254.13 212.53C238.26 219.82 228.76 224.74 222.01 229.18C193.43 247.97 177.99 271.1 177.99 295.14C177.99 306.44 180.42 313.86 186.51 321.17C189.47 324.72 189.59 324.77 193.95 324.77C194.25 324.77 195.73 324.77 198.39 324.77L201.84 320.3C209.93 311.81 217.07 306.09 223.25 303.12Z" id="aaM6rQbvd"></path></defs><g><g><g><use xlink:href="#bVnEokAGV" opacity="1" fill="#000000" fill-opacity="1"></use><g><use xlink:href="#bVnEokAGV" opacity="1" fill-opacity="0" stroke="#000000" stroke-width="1" stroke-opacity="0"></use></g></g><g><use xlink:href="#c8cGDrUkL" opacity="1" fill="#ff00f6" fill-opacity="1"></use><g><use xlink:href="#c8cGDrUkL" opacity="1" fill-opacity="0" stroke="#000000" stroke-width="1" stroke-opacity="0"></use></g></g><g><use xlink:href="#a5AYWb2m70" opacity="1" fill="#2aa0ff" fill-opacity="1"></use><g><use xlink:href="#a5AYWb2m70" opacity="1" fill-opacity="0" stroke="#000000" stroke-width="1" stroke-opacity="0"></use></g></g><g><use xlink:href="#a5Vripza4" opacity="1" fill="#ffffff" fill-opacity="1"></use><g><use xlink:href="#a5Vripza4" opacity="1" fill-opacity="0" stroke="#000000" stroke-width="1" stroke-opacity="0"></use></g></g><g><use xlink:href="#d2ZdcLNhmf" opacity="1" fill="#ffffff" fill-opacity="1"></use><g><use xlink:href="#d2ZdcLNhmf" opacity="1" fill-opacity="0" stroke="#000000" stroke-width="1" stroke-opacity="0"></use></g></g><g><use xlink:href="#a3crpS6Ev4" opacity="1" fill="#ffffff" fill-opacity="1"></use><g><use xlink:href="#a3crpS6Ev4" opacity="1" fill-opacity="0" stroke="#000000" stroke-width="1" stroke-opacity="0"></use></g></g><g><use xlink:href="#f8j6MrW2zG" opacity="1" fill="#2aff66" fill-opacity="1"></use><g><use xlink:href="#f8j6MrW2zG" opacity="1" fill-opacity="0" stroke="#000000" stroke-width="1" stroke-opacity="0"></use></g></g><g><use xlink:href="#aM4xxzvqD" opacity="1" fill="#2aff66" fill-opacity="1"></use><g><use xlink:href="#aM4xxzvqD" opacity="1" fill-opacity="0" stroke="#000000" stroke-width="1" stroke-opacity="0"></use></g></g><g><use xlink:href="#aaM6rQbvd" opacity="1" fill="#fcff00" fill-opacity="1"></use><g><use xlink:href="#aaM6rQbvd" opacity="1" fill-opacity="0" stroke="#000000" stroke-width="1" stroke-opacity="0"></use></g></g></g></g></svg>